<svg width="193" height="87" viewBox="0 0 193 87" fill="none" xmlns="http://www.w3.org/2000/svg">
<path d="M10.12 50.55C7.18667 50.55 4.96833 49.725 3.465 48.075C1.96167 46.3883 1.21 43.9867 1.21 40.87V38.67H6.93V41.31C6.93 43.8033 7.975 45.05 10.065 45.05C11.0917 45.05 11.8617 44.7567 12.375 44.17C12.925 43.5467 13.2 42.5567 13.2 41.2C13.2 39.5867 12.8333 38.175 12.1 36.965C11.3667 35.7183 10.01 34.2333 8.03 32.51C5.53667 30.31 3.795 28.33 2.805 26.57C1.815 24.7733 1.32 22.7567 1.32 20.52C1.32 17.4767 2.09 15.13 3.63 13.48C5.17 11.7933 7.40667 10.95 10.34 10.95C13.2367 10.95 15.4183 11.7933 16.885 13.48C18.3883 15.13 19.14 17.5133 19.14 20.63V22.225H13.42V20.245C13.42 18.925 13.1633 17.9717 12.65 17.385C12.1367 16.7617 11.385 16.45 10.395 16.45C8.37833 16.45 7.37 17.6783 7.37 20.135C7.37 21.5283 7.73667 22.83 8.47 24.04C9.24 25.25 10.615 26.7167 12.595 28.44C15.125 30.64 16.8667 32.6383 17.82 34.435C18.7733 36.2317 19.25 38.34 19.25 40.76C19.25 43.9133 18.4617 46.3333 16.885 48.02C15.345 49.7067 13.09 50.55 10.12 50.55Z" fill="#EB3223"/>
<path d="M3.465 48.075L2.71844 48.7404L2.7258 48.7485L3.465 48.075ZM1.21 38.67V37.67H0.21V38.67H1.21ZM6.93 38.67H7.93V37.67H6.93V38.67ZM12.375 44.17L11.6252 43.5084L11.6224 43.5115L12.375 44.17ZM12.1 36.965L11.238 37.4721L11.2448 37.4833L12.1 36.965ZM8.03 32.51L7.36836 33.2599L7.37348 33.2643L8.03 32.51ZM2.805 26.57L1.92913 27.0526L1.93342 27.0603L2.805 26.57ZM3.63 13.48L4.3611 14.1624L4.36849 14.1543L3.63 13.48ZM16.885 13.48L16.1304 14.1362L16.138 14.1449L16.1458 14.1535L16.885 13.48ZM19.14 22.225V23.225H20.14V22.225H19.14ZM13.42 22.225H12.42V23.225H13.42V22.225ZM12.65 17.385L11.8781 18.0207L11.8876 18.0322L11.8974 18.0435L12.65 17.385ZM8.47 24.04L7.6148 24.5583L7.62047 24.5676L7.62634 24.5769L8.47 24.04ZM12.595 28.44L11.9385 29.1943L11.9388 29.1946L12.595 28.44ZM17.82 34.435L16.9367 34.9037L17.82 34.435ZM16.885 48.02L16.1544 47.3371L16.1465 47.3457L16.885 48.02ZM10.12 49.55C7.37487 49.55 5.46327 48.7834 4.2042 47.4015L2.7258 48.7485C4.4734 50.6666 6.99846 51.55 10.12 51.55V49.55ZM4.21151 47.4096C2.92443 45.9656 2.21 43.8347 2.21 40.87H0.21C0.21 44.1386 0.998904 46.8111 2.71849 48.7404L4.21151 47.4096ZM2.21 40.87V38.67H0.21V40.87H2.21ZM1.21 39.67H6.93V37.67H1.21V39.67ZM5.93 38.67V41.31H7.93V38.67H5.93ZM5.93 41.31C5.93 42.672 6.21174 43.8798 6.94738 44.7574C7.71135 45.6688 8.81498 46.05 10.065 46.05V44.05C9.22502 44.05 8.76115 43.8079 8.48012 43.4726C8.17076 43.1035 7.93 42.4413 7.93 41.31H5.93ZM10.065 46.05C11.2831 46.05 12.3687 45.6958 13.1276 44.8285L11.6224 43.5115C11.3546 43.8175 10.9002 44.05 10.065 44.05V46.05ZM13.1248 44.8316C13.9111 43.9405 14.2 42.656 14.2 41.2H12.2C12.2 42.4573 11.9389 43.1528 11.6252 43.5084L13.1248 44.8316ZM14.2 41.2C14.2 39.4301 13.796 37.834 12.9552 36.4467L11.2448 37.4833C11.8707 38.516 12.2 39.7432 12.2 41.2H14.2ZM12.9619 36.458C12.1463 35.0714 10.693 33.502 8.68653 31.7557L7.37348 33.2643C9.32704 34.9646 10.587 36.3652 11.2381 37.472L12.9619 36.458ZM8.69162 31.7602C6.2353 29.5928 4.58758 27.6993 3.67658 26.0797L1.93342 27.0603C3.00242 28.9607 4.83804 31.0272 7.36838 33.2598L8.69162 31.7602ZM3.68084 26.0874C2.77951 24.4517 2.32 22.6035 2.32 20.52H0.32C0.32 22.9098 0.850487 25.095 1.92916 27.0526L3.68084 26.0874ZM2.32 20.52C2.32 17.6401 3.04673 15.5705 4.36106 14.1623L2.89894 12.7977C1.13327 14.6895 0.32 17.3132 0.32 20.52H2.32ZM4.36849 14.1543C5.66851 12.7304 7.60281 11.95 10.34 11.95V9.95C7.21053 9.95 4.67149 10.8562 2.89151 12.8057L4.36849 14.1543ZM10.34 11.95C13.0387 11.95 14.9064 12.7286 16.1304 14.1362L17.6396 12.8238C15.9303 10.8581 13.4347 9.95 10.34 9.95V11.95ZM16.1458 14.1535C17.4249 15.5574 18.14 17.6636 18.14 20.63H20.14C20.14 17.3631 19.3518 14.7026 17.6242 12.8065L16.1458 14.1535ZM18.14 20.63V22.225H20.14V20.63H18.14ZM19.14 21.225H13.42V23.225H19.14V21.225ZM14.42 22.225V20.245H12.42V22.225H14.42ZM14.42 20.245C14.42 18.8375 14.1541 17.5854 13.4026 16.7265L11.8974 18.0435C12.1726 18.3579 12.42 19.0125 12.42 20.245H14.42ZM13.4219 16.7493C12.6761 15.8436 11.6097 15.45 10.395 15.45V17.45C11.1603 17.45 11.5973 17.6797 11.8781 18.0207L13.4219 16.7493ZM10.395 15.45C9.17475 15.45 8.09671 15.8312 7.35332 16.7368C6.64095 17.6046 6.37 18.7952 6.37 20.135H8.37C8.37 19.0181 8.60322 18.3663 8.89918 18.0057C9.16412 17.683 9.59859 17.45 10.395 17.45V15.45ZM6.37 20.135C6.37 21.714 6.78829 23.1946 7.6148 24.5583L9.3252 23.5217C8.68504 22.4654 8.37 21.3426 8.37 20.135H6.37ZM7.62634 24.5769C8.47416 25.9092 9.93547 27.4509 11.9385 29.1943L13.2515 27.6857C11.2945 25.9824 10.0058 24.5908 9.31366 23.5031L7.62634 24.5769ZM11.9388 29.1946C14.4284 31.3594 16.0662 33.2632 16.9367 34.9037L18.7033 33.9663C17.6671 32.0134 15.8216 29.9206 13.2512 27.6854L11.9388 29.1946ZM16.9367 34.9037C17.8001 36.531 18.25 38.4725 18.25 40.76H20.25C20.25 38.2075 19.7466 35.9324 18.7033 33.9663L16.9367 34.9037ZM18.25 40.76C18.25 43.7538 17.503 45.8945 16.1545 47.3371L17.6155 48.7029C19.4204 46.7721 20.25 44.0729 20.25 40.76H18.25ZM16.1465 47.3457C14.8488 48.767 12.8983 49.55 10.12 49.55V51.55C13.2817 51.55 15.8412 50.6463 17.6235 48.6943L16.1465 47.3457Z" fill="#EB3223"/>
<path d="M24.255 44.17H30.085V50H24.255V44.17ZM34.6212 11.5H43.8612C46.8679 11.5 49.1229 12.3067 50.6262 13.92C52.1295 15.5333 52.8812 17.8983 52.8812 21.015V40.485C52.8812 43.6017 52.1295 45.9667 50.6262 47.58C49.1229 49.1933 46.8679 50 43.8612 50H34.6212V11.5ZM43.7512 44.5C44.7412 44.5 45.4929 44.2067 46.0062 43.62C46.5562 43.0333 46.8312 42.08 46.8312 40.76V20.74C46.8312 19.42 46.5562 18.4667 46.0062 17.88C45.4929 17.2933 44.7412 17 43.7512 17H40.6712V44.5H43.7512ZM56.965 11.5H73.465V17H63.015V27.175H71.32V32.675H63.015V44.5H73.465V50H56.965V11.5ZM75.3504 11.5H81.4554L85.4154 41.365H85.5254L89.4854 11.5H95.0404L89.2104 50H81.1804L75.3504 11.5ZM97.9464 11.5H103.996V50H97.9464V11.5ZM113.202 11.5H121.397L127.667 50H121.617L120.517 42.355V42.465H113.642L112.542 50H106.932L113.202 11.5ZM119.802 37.24L117.107 18.21H116.997L114.357 37.24H119.802ZM130.603 11.5H138.193L144.078 34.545H144.188V11.5H149.578V50H143.363L136.103 21.895H135.993V50H130.603V11.5ZM158.804 17H152.479V11.5H171.179V17H164.854V50H158.804V17ZM181.974 50.55C179.04 50.55 176.822 49.725 175.319 48.075C173.815 46.3883 173.064 43.9867 173.064 40.87V38.67H178.784V41.31C178.784 43.8033 179.829 45.05 181.919 45.05C182.945 45.05 183.715 44.7567 184.229 44.17C184.779 43.5467 185.054 42.5567 185.054 41.2C185.054 39.5867 184.687 38.175 183.954 36.965C183.22 35.7183 181.864 34.2333 179.884 32.51C177.39 30.31 175.649 28.33 174.659 26.57C173.669 24.7733 173.174 22.7567 173.174 20.52C173.174 17.4767 173.944 15.13 175.484 13.48C177.024 11.7933 179.26 10.95 182.194 10.95C185.09 10.95 187.272 11.7933 188.739 13.48C190.242 15.13 190.994 17.5133 190.994 20.63V22.225H185.274V20.245C185.274 18.925 185.017 17.9717 184.504 17.385C183.99 16.7617 183.239 16.45 182.249 16.45C180.232 16.45 179.224 17.6783 179.224 20.135C179.224 21.5283 179.59 22.83 180.324 24.04C181.094 25.25 182.469 26.7167 184.449 28.44C186.979 30.64 188.72 32.6383 189.674 34.435C190.627 36.2317 191.104 38.34 191.104 40.76C191.104 43.9133 190.315 46.3333 188.739 48.02C187.199 49.7067 184.944 50.55 181.974 50.55Z" fill="white"/>
<path d="M24.255 44.17V43.17H23.255V44.17H24.255ZM30.085 44.17H31.085V43.17H30.085V44.17ZM30.085 50V51H31.085V50H30.085ZM24.255 50H23.255V51H24.255V50ZM24.255 45.17H30.085V43.17H24.255V45.17ZM29.085 44.17V50H31.085V44.17H29.085ZM30.085 49H24.255V51H30.085V49ZM25.255 50V44.17H23.255V50H25.255ZM34.6212 11.5V10.5H33.6212V11.5H34.6212ZM50.6262 13.92L49.8946 14.6017L50.6262 13.92ZM50.6262 47.58L49.8946 46.8983L50.6262 47.58ZM34.6212 50H33.6212V51H34.6212V50ZM46.0062 43.62L45.2767 42.9361L45.2649 42.9486L45.2536 42.9615L46.0062 43.62ZM46.0062 17.88L45.2536 18.5385L45.2649 18.5514L45.2767 18.5639L46.0062 17.88ZM40.6712 17V16H39.6712V17H40.6712ZM40.6712 44.5H39.6712V45.5H40.6712V44.5ZM34.6212 12.5H43.8612V10.5H34.6212V12.5ZM43.8612 12.5C46.6949 12.5 48.6415 13.2569 49.8946 14.6017L51.3578 13.2383C49.6042 11.3564 47.0408 10.5 43.8612 10.5V12.5ZM49.8946 14.6017C51.1654 15.9655 51.8812 18.0467 51.8812 21.015H53.8812C53.8812 17.75 53.0937 15.1012 51.3578 13.2383L49.8946 14.6017ZM51.8812 21.015V40.485H53.8812V21.015H51.8812ZM51.8812 40.485C51.8812 43.4533 51.1654 45.5345 49.8946 46.8983L51.3578 48.2617C53.0937 46.3988 53.8812 43.75 53.8812 40.485H51.8812ZM49.8946 46.8983C48.6415 48.2431 46.6949 49 43.8612 49V51C47.0408 51 49.6042 50.1436 51.3578 48.2617L49.8946 46.8983ZM43.8612 49H34.6212V51H43.8612V49ZM35.6212 50V11.5H33.6212V50H35.6212ZM43.7512 45.5C44.946 45.5 46.0067 45.138 46.7588 44.2785L45.2536 42.9615C44.9791 43.2753 44.5364 43.5 43.7512 43.5V45.5ZM46.7357 44.3039C47.5419 43.444 47.8312 42.1804 47.8312 40.76H45.8312C45.8312 41.9796 45.5705 42.6226 45.2767 42.9361L46.7357 44.3039ZM47.8312 40.76V20.74H45.8312V40.76H47.8312ZM47.8312 20.74C47.8312 19.3196 47.5419 18.0559 46.7358 17.1961L45.2767 18.5639C45.5705 18.8774 45.8312 19.5204 45.8312 20.74H47.8312ZM46.7588 17.2215C46.0067 16.362 44.946 16 43.7512 16V18C44.5364 18 44.9791 18.2247 45.2536 18.5385L46.7588 17.2215ZM43.7512 16H40.6712V18H43.7512V16ZM39.6712 17V44.5H41.6712V17H39.6712ZM40.6712 45.5H43.7512V43.5H40.6712V45.5ZM56.965 11.5V10.5H55.965V11.5H56.965ZM73.465 11.5H74.465V10.5H73.465V11.5ZM73.465 17V18H74.465V17H73.465ZM63.015 17V16H62.015V17H63.015ZM63.015 27.175H62.015V28.175H63.015V27.175ZM71.32 27.175H72.32V26.175H71.32V27.175ZM71.32 32.675V33.675H72.32V32.675H71.32ZM63.015 32.675V31.675H62.015V32.675H63.015ZM63.015 44.5H62.015V45.5H63.015V44.5ZM73.465 44.5H74.465V43.5H73.465V44.5ZM73.465 50V51H74.465V50H73.465ZM56.965 50H55.965V51H56.965V50ZM56.965 12.5H73.465V10.5H56.965V12.5ZM72.465 11.5V17H74.465V11.5H72.465ZM73.465 16H63.015V18H73.465V16ZM62.015 17V27.175H64.015V17H62.015ZM63.015 28.175H71.32V26.175H63.015V28.175ZM70.32 27.175V32.675H72.32V27.175H70.32ZM71.32 31.675H63.015V33.675H71.32V31.675ZM62.015 32.675V44.5H64.015V32.675H62.015ZM63.015 45.5H73.465V43.5H63.015V45.5ZM72.465 44.5V50H74.465V44.5H72.465ZM73.465 49H56.965V51H73.465V49ZM57.965 50V11.5H55.965V50H57.965ZM75.3504 11.5V10.5H74.1876L74.3617 11.6497L75.3504 11.5ZM81.4554 11.5L82.4468 11.3686L82.3316 10.5H81.4554V11.5ZM85.4154 41.365L84.4241 41.4964L84.5393 42.365H85.4154V41.365ZM85.5254 41.365V42.365H86.4016L86.5168 41.4964L85.5254 41.365ZM89.4854 11.5V10.5H88.6093L88.4941 11.3686L89.4854 11.5ZM95.0404 11.5L96.0292 11.6497L96.2033 10.5H95.0404V11.5ZM89.2104 50V51H90.0704L90.1992 50.1497L89.2104 50ZM81.1804 50L80.1917 50.1497L80.3205 51H81.1804V50ZM75.3504 12.5H81.4554V10.5H75.3504V12.5ZM80.4641 11.6314L84.4241 41.4964L86.4068 41.2336L82.4468 11.3686L80.4641 11.6314ZM85.4154 42.365H85.5254V40.365H85.4154V42.365ZM86.5168 41.4964L90.4768 11.6314L88.4941 11.3686L84.5341 41.2336L86.5168 41.4964ZM89.4854 12.5H95.0404V10.5H89.4854V12.5ZM94.0517 11.3503L88.2217 49.8503L90.1992 50.1497L96.0292 11.6497L94.0517 11.3503ZM89.2104 49H81.1804V51H89.2104V49ZM82.1692 49.8503L76.3392 11.3503L74.3617 11.6497L80.1917 50.1497L82.1692 49.8503ZM97.9464 11.5V10.5H96.9464V11.5H97.9464ZM103.996 11.5H104.996V10.5H103.996V11.5ZM103.996 50V51H104.996V50H103.996ZM97.9464 50H96.9464V51H97.9464V50ZM97.9464 12.5H103.996V10.5H97.9464V12.5ZM102.996 11.5V50H104.996V11.5H102.996ZM103.996 49H97.9464V51H103.996V49ZM98.9464 50V11.5H96.9464V50H98.9464ZM113.202 11.5V10.5H112.352L112.215 11.3393L113.202 11.5ZM121.397 11.5L122.384 11.3393L122.248 10.5H121.397V11.5ZM127.667 50V51H128.843L128.654 49.8393L127.667 50ZM121.617 50L120.628 50.1424L120.751 51H121.617V50ZM120.517 42.355L121.507 42.2126L119.517 42.355H120.517ZM120.517 42.465V43.465H121.517V42.465H120.517ZM113.642 42.465V41.465H112.778L112.653 42.3205L113.642 42.465ZM112.542 50V51H113.407L113.532 50.1445L112.542 50ZM106.932 50L105.945 49.8393L105.756 51H106.932V50ZM119.802 37.24V38.24H120.954L120.793 37.0998L119.802 37.24ZM117.107 18.21L118.098 18.0698L117.976 17.21H117.107V18.21ZM116.997 18.21V17.21H116.127L116.007 18.0726L116.997 18.21ZM114.357 37.24L113.367 37.1026L113.209 38.24H114.357V37.24ZM113.202 12.5H121.397V10.5H113.202V12.5ZM120.41 11.6607L126.68 50.1607L128.654 49.8393L122.384 11.3393L120.41 11.6607ZM127.667 49H121.617V51H127.667V49ZM122.607 49.8576L121.507 42.2126L119.528 42.4974L120.628 50.1424L122.607 49.8576ZM119.517 42.355V42.465H121.517V42.355H119.517ZM120.517 41.465H113.642V43.465H120.517V41.465ZM112.653 42.3205L111.553 49.8555L113.532 50.1445L114.632 42.6095L112.653 42.3205ZM112.542 49H106.932V51H112.542V49ZM107.919 50.1607L114.189 11.6607L112.215 11.3393L105.945 49.8393L107.919 50.1607ZM120.793 37.0998L118.098 18.0698L116.117 18.3502L118.812 37.3802L120.793 37.0998ZM117.107 17.21H116.997V19.21H117.107V17.21ZM116.007 18.0726L113.367 37.1026L115.348 37.3774L117.988 18.3474L116.007 18.0726ZM114.357 38.24H119.802V36.24H114.357V38.24ZM130.603 11.5V10.5H129.603V11.5H130.603ZM138.193 11.5L139.162 11.2526L138.969 10.5H138.193V11.5ZM144.078 34.545L143.109 34.7924L143.301 35.545H144.078V34.545ZM144.188 34.545V35.545H145.188V34.545H144.188ZM144.188 11.5V10.5H143.188V11.5H144.188ZM149.578 11.5H150.578V10.5H149.578V11.5ZM149.578 50V51H150.578V50H149.578ZM143.363 50L142.394 50.2501L142.588 51H143.363V50ZM136.103 21.895L137.071 21.6449L136.877 20.895H136.103V21.895ZM135.993 21.895V20.895H134.993V21.895H135.993ZM135.993 50V51H136.993V50H135.993ZM130.603 50H129.603V51H130.603V50ZM130.603 12.5H138.193V10.5H130.603V12.5ZM137.224 11.7474L143.109 34.7924L145.047 34.2976L139.162 11.2526L137.224 11.7474ZM144.078 35.545H144.188V33.545H144.078V35.545ZM145.188 34.545V11.5H143.188V34.545H145.188ZM144.188 12.5H149.578V10.5H144.188V12.5ZM148.578 11.5V50H150.578V11.5H148.578ZM149.578 49H143.363V51H149.578V49ZM144.331 49.7499L137.071 21.6449L135.134 22.1451L142.394 50.2501L144.331 49.7499ZM136.103 20.895H135.993V22.895H136.103V20.895ZM134.993 21.895V50H136.993V21.895H134.993ZM135.993 49H130.603V51H135.993V49ZM131.603 50V11.5H129.603V50H131.603ZM158.804 17H159.804V16H158.804V17ZM152.479 17H151.479V18H152.479V17ZM152.479 11.5V10.5H151.479V11.5H152.479ZM171.179 11.5H172.179V10.5H171.179V11.5ZM171.179 17V18H172.179V17H171.179ZM164.854 17V16H163.854V17H164.854ZM164.854 50V51H165.854V50H164.854ZM158.804 50H157.804V51H158.804V50ZM158.804 16H152.479V18H158.804V16ZM153.479 17V11.5H151.479V17H153.479ZM152.479 12.5H171.179V10.5H152.479V12.5ZM170.179 11.5V17H172.179V11.5H170.179ZM171.179 16H164.854V18H171.179V16ZM163.854 17V50H165.854V17H163.854ZM164.854 49H158.804V51H164.854V49ZM159.804 50V17H157.804V50H159.804ZM175.319 48.075L174.572 48.7404L174.579 48.7485L175.319 48.075ZM173.064 38.67V37.67H172.064V38.67H173.064ZM178.784 38.67H179.784V37.67H178.784V38.67ZM184.229 44.17L183.479 43.5084L183.476 43.5115L184.229 44.17ZM183.954 36.965L183.092 37.4721L183.098 37.4833L183.954 36.965ZM179.884 32.51L179.222 33.2599L179.227 33.2643L179.884 32.51ZM174.659 26.57L173.783 27.0526L173.787 27.0603L174.659 26.57ZM175.484 13.48L176.215 14.1624L176.222 14.1543L175.484 13.48ZM188.739 13.48L187.984 14.1362L187.992 14.1449L187.999 14.1535L188.739 13.48ZM190.994 22.225V23.225H191.994V22.225H190.994ZM185.274 22.225H184.274V23.225H185.274V22.225ZM184.504 17.385L183.732 18.0207L183.741 18.0322L183.751 18.0435L184.504 17.385ZM180.324 24.04L179.468 24.5583L179.474 24.5676L179.48 24.5769L180.324 24.04ZM184.449 28.44L183.792 29.1943L183.792 29.1946L184.449 28.44ZM189.674 34.435L188.79 34.9037L189.674 34.435ZM188.739 48.02L188.008 47.3371L188 47.3457L188.739 48.02ZM181.974 49.55C179.228 49.55 177.317 48.7834 176.058 47.4015L174.579 48.7485C176.327 50.6666 178.852 51.55 181.974 51.55V49.55ZM176.065 47.4096C174.778 45.9656 174.064 43.8347 174.064 40.87H172.064C172.064 44.1386 172.852 46.8111 174.572 48.7404L176.065 47.4096ZM174.064 40.87V38.67H172.064V40.87H174.064ZM173.064 39.67H178.784V37.67H173.064V39.67ZM177.784 38.67V41.31H179.784V38.67H177.784ZM177.784 41.31C177.784 42.672 178.065 43.8798 178.801 44.7574C179.565 45.6688 180.669 46.05 181.919 46.05V44.05C181.079 44.05 180.615 43.8079 180.334 43.4726C180.024 43.1035 179.784 42.4413 179.784 41.31H177.784ZM181.919 46.05C183.137 46.05 184.222 45.6958 184.981 44.8285L183.476 43.5115C183.208 43.8175 182.754 44.05 181.919 44.05V46.05ZM184.978 44.8316C185.765 43.9405 186.054 42.656 186.054 41.2H184.054C184.054 42.4573 183.792 43.1528 183.479 43.5084L184.978 44.8316ZM186.054 41.2C186.054 39.4301 185.649 37.834 184.809 36.4467L183.098 37.4833C183.724 38.516 184.054 39.7432 184.054 41.2H186.054ZM184.815 36.458C184 35.0714 182.546 33.502 180.54 31.7557L179.227 33.2643C181.181 34.9646 182.441 36.3652 183.092 37.472L184.815 36.458ZM180.545 31.7602C178.089 29.5928 176.441 27.6993 175.53 26.0797L173.787 27.0603C174.856 28.9607 176.692 31.0272 179.222 33.2598L180.545 31.7602ZM175.534 26.0874C174.633 24.4517 174.174 22.6035 174.174 20.52H172.174C172.174 22.9098 172.704 25.095 173.783 27.0526L175.534 26.0874ZM174.174 20.52C174.174 17.6401 174.9 15.5705 176.215 14.1623L174.752 12.7977C172.987 14.6895 172.174 17.3132 172.174 20.52H174.174ZM176.222 14.1543C177.522 12.7304 179.456 11.95 182.194 11.95V9.95C179.064 9.95 176.525 10.8562 174.745 12.8057L176.222 14.1543ZM182.194 11.95C184.892 11.95 186.76 12.7286 187.984 14.1362L189.493 12.8238C187.784 10.8581 185.288 9.95 182.194 9.95V11.95ZM187.999 14.1535C189.278 15.5574 189.994 17.6636 189.994 20.63H191.994C191.994 17.3631 191.205 14.7026 189.478 12.8065L187.999 14.1535ZM189.994 20.63V22.225H191.994V20.63H189.994ZM190.994 21.225H185.274V23.225H190.994V21.225ZM186.274 22.225V20.245H184.274V22.225H186.274ZM186.274 20.245C186.274 18.8375 186.008 17.5854 185.256 16.7265L183.751 18.0435C184.026 18.3579 184.274 19.0125 184.274 20.245H186.274ZM185.275 16.7493C184.53 15.8436 183.463 15.45 182.249 15.45V17.45C183.014 17.45 183.451 17.6797 183.732 18.0207L185.275 16.7493ZM182.249 15.45C181.028 15.45 179.95 15.8312 179.207 16.7368C178.494 17.6046 178.224 18.7952 178.224 20.135H180.224C180.224 19.0181 180.457 18.3663 180.753 18.0057C181.018 17.683 181.452 17.45 182.249 17.45V15.45ZM178.224 20.135C178.224 21.714 178.642 23.1946 179.468 24.5583L181.179 23.5217C180.539 22.4654 180.224 21.3426 180.224 20.135H178.224ZM179.48 24.5769C180.328 25.9092 181.789 27.4509 183.792 29.1943L185.105 27.6857C183.148 25.9824 181.859 24.5908 181.167 23.5031L179.48 24.5769ZM183.792 29.1946C186.282 31.3594 187.92 33.2632 188.79 34.9037L190.557 33.9663C189.521 32.0134 187.675 29.9206 185.105 27.6854L183.792 29.1946ZM188.79 34.9037C189.654 36.531 190.104 38.4725 190.104 40.76H192.104C192.104 38.2075 191.6 35.9324 190.557 33.9663L188.79 34.9037ZM190.104 40.76C190.104 43.7538 189.357 45.8945 188.008 47.3371L189.469 48.7029C191.274 46.7721 192.104 44.0729 192.104 40.76H190.104ZM188 47.3457C186.702 48.767 184.752 49.55 181.974 49.55V51.55C185.135 51.55 187.695 50.6463 189.477 48.6943L188 47.3457Z" fill="white"/>
<path d="M27.943 63.9H34.843V66.2H30.473V70.455H33.946V72.755H30.473V77.7H34.843V80H27.943V63.9ZM36.2985 63.9H39.4725L41.9335 73.537H41.9795V63.9H44.2335V80H41.6345L38.5985 68.247H38.5525V80H36.2985V63.9ZM49.7019 80.23C48.4752 80.23 47.5399 79.885 46.8959 79.195C46.2519 78.4897 45.9299 77.4853 45.9299 76.182V67.718C45.9299 66.4147 46.2519 65.418 46.8959 64.728C47.5399 64.0227 48.4752 63.67 49.7019 63.67C50.9286 63.67 51.8639 64.0227 52.5079 64.728C53.1519 65.418 53.4739 66.4147 53.4739 67.718V69.098H51.0819V67.557C51.0819 66.499 50.6449 65.97 49.7709 65.97C48.8969 65.97 48.4599 66.499 48.4599 67.557V76.366C48.4599 77.4087 48.8969 77.93 49.7709 77.93C50.6449 77.93 51.0819 77.4087 51.0819 76.366V73.215H49.8169V70.915H53.4739V76.182C53.4739 77.4853 53.1519 78.4897 52.5079 79.195C51.8639 79.885 50.9286 80.23 49.7019 80.23ZM57.0533 63.9H60.4803L63.1023 80H60.5723L60.1123 76.803V76.849H57.2373L56.7773 80H54.4313L57.0533 63.9ZM59.8133 74.664L58.6863 66.706H58.6403L57.5363 74.664H59.8133ZM67.8728 80.23C66.6461 80.23 65.7108 79.885 65.0668 79.195C64.4228 78.4897 64.1008 77.4853 64.1008 76.182V67.718C64.1008 66.4147 64.4228 65.418 65.0668 64.728C65.7108 64.0227 66.6461 63.67 67.8728 63.67C69.0995 63.67 70.0348 64.0227 70.6788 64.728C71.3228 65.418 71.6448 66.4147 71.6448 67.718V69.098H69.2528V67.557C69.2528 66.499 68.8158 65.97 67.9418 65.97C67.0678 65.97 66.6308 66.499 66.6308 67.557V76.366C66.6308 77.4087 67.0678 77.93 67.9418 77.93C68.8158 77.93 69.2528 77.4087 69.2528 76.366V73.215H67.9878V70.915H71.6448V76.182C71.6448 77.4853 71.3228 78.4897 70.6788 79.195C70.0348 79.885 69.0995 80.23 67.8728 80.23ZM73.2692 63.9H80.1692V66.2H75.7992V70.455H79.2722V72.755H75.7992V77.7H80.1692V80H73.2692V63.9ZM87.2366 63.9H89.4216L83.0736 80H80.8886L87.2366 63.9ZM90.5641 63.9H94.2901C95.5474 63.9 96.4904 64.2373 97.1191 64.912C97.7478 65.5867 98.0621 66.5757 98.0621 67.879V69.466C98.0621 70.7693 97.7478 71.7583 97.1191 72.433C96.4904 73.1077 95.5474 73.445 94.2901 73.445H93.0941V80H90.5641V63.9ZM94.2901 71.145C94.7041 71.145 95.0108 71.03 95.2101 70.8C95.4248 70.57 95.5321 70.179 95.5321 69.627V67.718C95.5321 67.166 95.4248 66.775 95.2101 66.545C95.0108 66.315 94.7041 66.2 94.2901 66.2H93.0941V71.145H94.2901ZM99.4362 63.9H101.966V77.7H106.129V80H99.4362V63.9ZM109.387 63.9H112.814L115.436 80H112.906L112.446 76.803V76.849H109.571L109.111 80H106.765L109.387 63.9ZM112.147 74.664L111.02 66.706H110.974L109.87 74.664H112.147ZM117.931 73.146L114.872 63.9H117.563L119.288 69.811H119.334L121.059 63.9H123.52L120.461 73.146V80H117.931V73.146ZM129.014 63.9H131.199L124.851 80H122.666L129.014 63.9ZM135.906 80.23C134.695 80.23 133.767 79.885 133.123 79.195C132.495 78.505 132.18 77.5313 132.18 76.274V67.626C132.18 66.3687 132.495 65.395 133.123 64.705C133.767 64.015 134.695 63.67 135.906 63.67C137.118 63.67 138.038 64.015 138.666 64.705C139.31 65.395 139.632 66.3687 139.632 67.626V69.328H137.24V67.465C137.24 66.4683 136.819 65.97 135.975 65.97C135.132 65.97 134.71 66.4683 134.71 67.465V76.458C134.71 77.4393 135.132 77.93 135.975 77.93C136.819 77.93 137.24 77.4393 137.24 76.458V73.997H139.632V76.274C139.632 77.5313 139.31 78.505 138.666 79.195C138.038 79.885 137.118 80.23 135.906 80.23ZM141.146 63.9H144.895C146.198 63.9 147.149 64.2067 147.747 64.82C148.345 65.418 148.644 66.3457 148.644 67.603V68.592C148.644 70.2633 148.092 71.3213 146.988 71.766V71.812C147.601 71.996 148.031 72.3717 148.276 72.939C148.537 73.5063 148.667 74.2653 148.667 75.216V78.045C148.667 78.505 148.682 78.8807 148.713 79.172C148.744 79.448 148.82 79.724 148.943 80H146.367C146.275 79.7393 146.214 79.494 146.183 79.264C146.152 79.034 146.137 78.62 146.137 78.022V75.078C146.137 74.342 146.014 73.8283 145.769 73.537C145.539 73.2457 145.133 73.1 144.55 73.1H143.676V80H141.146V63.9ZM144.596 70.8C145.102 70.8 145.478 70.6697 145.723 70.409C145.984 70.1483 146.114 69.7113 146.114 69.098V67.856C146.114 67.2733 146.007 66.8517 145.792 66.591C145.593 66.3303 145.271 66.2 144.826 66.2H143.676V70.8H144.596ZM150.422 63.9H157.322V66.2H152.952V70.455H156.425V72.755H152.952V77.7H157.322V80H150.422V63.9ZM160.733 63.9H164.16L166.782 80H164.252L163.792 76.803V76.849H160.917L160.457 80H158.111L160.733 63.9ZM163.493 74.664L162.366 66.706H162.32L161.216 74.664H163.493ZM168.932 66.2H166.287V63.9H174.107V66.2H171.462V80H168.932V66.2ZM175.332 63.9H182.232V66.2H177.862V70.455H181.335V72.755H177.862V77.7H182.232V80H175.332V63.9Z" fill="white"/>
<path d="M27.943 63.9V63.4H27.443V63.9H27.943ZM34.843 63.9H35.343V63.4H34.843V63.9ZM34.843 66.2V66.7H35.343V66.2H34.843ZM30.473 66.2V65.7H29.973V66.2H30.473ZM30.473 70.455H29.973V70.955H30.473V70.455ZM33.946 70.455H34.446V69.955H33.946V70.455ZM33.946 72.755V73.255H34.446V72.755H33.946ZM30.473 72.755V72.255H29.973V72.755H30.473ZM30.473 77.7H29.973V78.2H30.473V77.7ZM34.843 77.7H35.343V77.2H34.843V77.7ZM34.843 80V80.5H35.343V80H34.843ZM27.943 80H27.443V80.5H27.943V80ZM27.943 64.4H34.843V63.4H27.943V64.4ZM34.343 63.9V66.2H35.343V63.9H34.343ZM34.843 65.7H30.473V66.7H34.843V65.7ZM29.973 66.2V70.455H30.973V66.2H29.973ZM30.473 70.955H33.946V69.955H30.473V70.955ZM33.446 70.455V72.755H34.446V70.455H33.446ZM33.946 72.255H30.473V73.255H33.946V72.255ZM29.973 72.755V77.7H30.973V72.755H29.973ZM30.473 78.2H34.843V77.2H30.473V78.2ZM34.343 77.7V80H35.343V77.7H34.343ZM34.843 79.5H27.943V80.5H34.843V79.5ZM28.443 80V63.9H27.443V80H28.443ZM36.2985 63.9V63.4H35.7985V63.9H36.2985ZM39.4725 63.9L39.9569 63.7763L39.8608 63.4H39.4725V63.9ZM41.9335 73.537L41.449 73.6607L41.5451 74.037H41.9335V73.537ZM41.9795 73.537V74.037H42.4795V73.537H41.9795ZM41.9795 63.9V63.4H41.4795V63.9H41.9795ZM44.2335 63.9H44.7335V63.4H44.2335V63.9ZM44.2335 80V80.5H44.7335V80H44.2335ZM41.6345 80L41.1504 80.1251L41.2472 80.5H41.6345V80ZM38.5985 68.247L39.0826 68.1219L38.9857 67.747H38.5985V68.247ZM38.5525 68.247V67.747H38.0525V68.247H38.5525ZM38.5525 80V80.5H39.0525V80H38.5525ZM36.2985 80H35.7985V80.5H36.2985V80ZM36.2985 64.4H39.4725V63.4H36.2985V64.4ZM38.988 64.0237L41.449 73.6607L42.4179 73.4133L39.9569 63.7763L38.988 64.0237ZM41.9335 74.037H41.9795V73.037H41.9335V74.037ZM42.4795 73.537V63.9H41.4795V73.537H42.4795ZM41.9795 64.4H44.2335V63.4H41.9795V64.4ZM43.7335 63.9V80H44.7335V63.9H43.7335ZM44.2335 79.5H41.6345V80.5H44.2335V79.5ZM42.1186 79.8749L39.0826 68.1219L38.1144 68.3721L41.1504 80.1251L42.1186 79.8749ZM38.5985 67.747H38.5525V68.747H38.5985V67.747ZM38.0525 68.247V80H39.0525V68.247H38.0525ZM38.5525 79.5H36.2985V80.5H38.5525V79.5ZM36.7985 80V63.9H35.7985V80H36.7985ZM46.8959 79.195L46.5266 79.5322L46.5304 79.5362L46.8959 79.195ZM46.8959 64.728L47.2614 65.0692L47.2651 65.0651L46.8959 64.728ZM52.5079 64.728L52.1386 65.0652L52.1424 65.0692L52.5079 64.728ZM53.4739 69.098V69.598H53.9739V69.098H53.4739ZM51.0819 69.098H50.5819V69.598H51.0819V69.098ZM51.0819 73.215H51.5819V72.715H51.0819V73.215ZM49.8169 73.215H49.3169V73.715H49.8169V73.215ZM49.8169 70.915V70.415H49.3169V70.915H49.8169ZM53.4739 70.915H53.9739V70.415H53.4739V70.915ZM52.5079 79.195L52.8734 79.5362L52.8771 79.5321L52.5079 79.195ZM49.7019 79.73C48.5701 79.73 47.7846 79.4144 47.2614 78.8538L46.5304 79.5362C47.2951 80.3556 48.3804 80.73 49.7019 80.73V79.73ZM47.2651 78.8579C46.7318 78.2738 46.4299 77.4066 46.4299 76.182H45.4299C45.4299 77.5641 45.772 78.7056 46.5267 79.5321L47.2651 78.8579ZM46.4299 76.182V67.718H45.4299V76.182H46.4299ZM46.4299 67.718C46.4299 66.4926 46.7321 65.6362 47.2614 65.0692L46.5304 64.3868C45.7716 65.1998 45.4299 66.3367 45.4299 67.718H46.4299ZM47.2651 65.0651C47.7892 64.4912 48.5733 64.17 49.7019 64.17V63.17C48.3772 63.17 47.2906 63.5541 46.5267 64.3909L47.2651 65.0651ZM49.7019 64.17C50.8305 64.17 51.6146 64.4912 52.1387 65.0651L52.8771 64.3909C52.1132 63.5541 51.0266 63.17 49.7019 63.17V64.17ZM52.1424 65.0692C52.6716 65.6362 52.9739 66.4926 52.9739 67.718H53.9739C53.9739 66.3367 53.6322 65.1998 52.8734 64.3868L52.1424 65.0692ZM52.9739 67.718V69.098H53.9739V67.718H52.9739ZM53.4739 68.598H51.0819V69.598H53.4739V68.598ZM51.5819 69.098V67.557H50.5819V69.098H51.5819ZM51.5819 67.557C51.5819 66.9717 51.463 66.4397 51.1396 66.0483C50.8012 65.6386 50.3128 65.47 49.7709 65.47V66.47C50.103 66.47 50.2701 66.5659 50.3687 66.6852C50.4823 66.8228 50.5819 67.0843 50.5819 67.557H51.5819ZM49.7709 65.47C49.229 65.47 48.7406 65.6386 48.4022 66.0483C48.0788 66.4397 47.9599 66.9717 47.9599 67.557H48.9599C48.9599 67.0843 49.0595 66.8228 49.1731 66.6852C49.2717 66.5659 49.4388 66.47 49.7709 66.47V65.47ZM47.9599 67.557V76.366H48.9599V67.557H47.9599ZM47.9599 76.366C47.9599 76.945 48.0794 77.4724 48.4045 77.8602C48.7437 78.2649 49.2314 78.43 49.7709 78.43V77.43C49.4364 77.43 49.2686 77.3344 49.1708 77.2178C49.0589 77.0843 48.9599 76.8297 48.9599 76.366H47.9599ZM49.7709 78.43C50.3104 78.43 50.7981 78.2649 51.1373 77.8602C51.4624 77.4724 51.5819 76.945 51.5819 76.366H50.5819C50.5819 76.8297 50.4829 77.0843 50.371 77.2178C50.2732 77.3344 50.1054 77.43 49.7709 77.43V78.43ZM51.5819 76.366V73.215H50.5819V76.366H51.5819ZM51.0819 72.715H49.8169V73.715H51.0819V72.715ZM50.3169 73.215V70.915H49.3169V73.215H50.3169ZM49.8169 71.415H53.4739V70.415H49.8169V71.415ZM52.9739 70.915V76.182H53.9739V70.915H52.9739ZM52.9739 76.182C52.9739 77.4066 52.672 78.2738 52.1387 78.8579L52.8771 79.5321C53.6318 78.7056 53.9739 77.5641 53.9739 76.182H52.9739ZM52.1424 78.8538C51.6191 79.4144 50.8337 79.73 49.7019 79.73V80.73C51.0234 80.73 52.1087 80.3556 52.8734 79.5362L52.1424 78.8538ZM57.0533 63.9V63.4H56.6281L56.5598 63.8196L57.0533 63.9ZM60.4803 63.9L60.9738 63.8196L60.9054 63.4H60.4803V63.9ZM63.1023 80V80.5H63.6903L63.5958 79.9196L63.1023 80ZM60.5723 80L60.0774 80.0712L60.1391 80.5H60.5723V80ZM60.1123 76.803L60.6072 76.7318L59.6123 76.803H60.1123ZM60.1123 76.849V77.349H60.6123V76.849H60.1123ZM57.2373 76.849V76.349H56.805L56.7425 76.7768L57.2373 76.849ZM56.7773 80V80.5H57.2096L57.272 80.0722L56.7773 80ZM54.4313 80L53.9378 79.9196L53.8433 80.5H54.4313V80ZM59.8133 74.664V75.164H60.3891L60.3083 74.5939L59.8133 74.664ZM58.6863 66.706L59.1813 66.6359L59.1205 66.206H58.6863V66.706ZM58.6403 66.706V66.206H58.2048L58.145 66.6373L58.6403 66.706ZM57.5363 74.664L57.041 74.5953L56.9621 75.164H57.5363V74.664ZM57.0533 64.4H60.4803V63.4H57.0533V64.4ZM59.9868 63.9804L62.6088 80.0804L63.5958 79.9196L60.9738 63.8196L59.9868 63.9804ZM63.1023 79.5H60.5723V80.5H63.1023V79.5ZM61.0672 79.9288L60.6072 76.7318L59.6174 76.8742L60.0774 80.0712L61.0672 79.9288ZM59.6123 76.803V76.849H60.6123V76.803H59.6123ZM60.1123 76.349H57.2373V77.349H60.1123V76.349ZM56.7425 76.7768L56.2825 79.9278L57.272 80.0722L57.732 76.9212L56.7425 76.7768ZM56.7773 79.5H54.4313V80.5H56.7773V79.5ZM54.9248 80.0804L57.5468 63.9804L56.5598 63.8196L53.9378 79.9196L54.9248 80.0804ZM60.3083 74.5939L59.1813 66.6359L58.1912 66.7761L59.3182 74.7341L60.3083 74.5939ZM58.6863 66.206H58.6403V67.206H58.6863V66.206ZM58.145 66.6373L57.041 74.5953L58.0315 74.7327L59.1355 66.7747L58.145 66.6373ZM57.5363 75.164H59.8133V74.164H57.5363V75.164ZM65.0668 79.195L64.6975 79.5322L64.7013 79.5362L65.0668 79.195ZM65.0668 64.728L65.4323 65.0692L65.436 65.0651L65.0668 64.728ZM70.6788 64.728L70.3095 65.0652L70.3133 65.0692L70.6788 64.728ZM71.6448 69.098V69.598H72.1448V69.098H71.6448ZM69.2528 69.098H68.7528V69.598H69.2528V69.098ZM69.2528 73.215H69.7528V72.715H69.2528V73.215ZM67.9878 73.215H67.4878V73.715H67.9878V73.215ZM67.9878 70.915V70.415H67.4878V70.915H67.9878ZM71.6448 70.915H72.1448V70.415H71.6448V70.915ZM70.6788 79.195L71.0443 79.5362L71.048 79.5321L70.6788 79.195ZM67.8728 79.73C66.741 79.73 65.9555 79.4144 65.4323 78.8538L64.7013 79.5362C65.466 80.3556 66.5513 80.73 67.8728 80.73V79.73ZM65.436 78.8579C64.9027 78.2738 64.6008 77.4066 64.6008 76.182H63.6008C63.6008 77.5641 63.9429 78.7056 64.6976 79.5321L65.436 78.8579ZM64.6008 76.182V67.718H63.6008V76.182H64.6008ZM64.6008 67.718C64.6008 66.4926 64.903 65.6362 65.4323 65.0692L64.7013 64.3868C63.9425 65.1998 63.6008 66.3367 63.6008 67.718H64.6008ZM65.436 65.0651C65.96 64.4912 66.7442 64.17 67.8728 64.17V63.17C66.5481 63.17 65.4615 63.5541 64.6976 64.3909L65.436 65.0651ZM67.8728 64.17C69.0014 64.17 69.7855 64.4912 70.3096 65.0651L71.048 64.3909C70.284 63.5541 69.1975 63.17 67.8728 63.17V64.17ZM70.3133 65.0692C70.8425 65.6362 71.1448 66.4926 71.1448 67.718H72.1448C72.1448 66.3367 71.803 65.1998 71.0443 64.3868L70.3133 65.0692ZM71.1448 67.718V69.098H72.1448V67.718H71.1448ZM71.6448 68.598H69.2528V69.598H71.6448V68.598ZM69.7528 69.098V67.557H68.7528V69.098H69.7528ZM69.7528 67.557C69.7528 66.9717 69.6339 66.4397 69.3105 66.0483C68.9721 65.6386 68.4837 65.47 67.9418 65.47V66.47C68.2739 66.47 68.441 66.5659 68.5396 66.6852C68.6532 66.8228 68.7528 67.0843 68.7528 67.557H69.7528ZM67.9418 65.47C67.3999 65.47 66.9115 65.6386 66.5731 66.0483C66.2497 66.4397 66.1308 66.9717 66.1308 67.557H67.1308C67.1308 67.0843 67.2304 66.8228 67.344 66.6852C67.4426 66.5659 67.6097 66.47 67.9418 66.47V65.47ZM66.1308 67.557V76.366H67.1308V67.557H66.1308ZM66.1308 76.366C66.1308 76.945 66.2503 77.4724 66.5754 77.8602C66.9146 78.2649 67.4023 78.43 67.9418 78.43V77.43C67.6073 77.43 67.4395 77.3344 67.3417 77.2178C67.2298 77.0843 67.1308 76.8297 67.1308 76.366H66.1308ZM67.9418 78.43C68.4813 78.43 68.969 78.2649 69.3082 77.8602C69.6333 77.4724 69.7528 76.945 69.7528 76.366H68.7528C68.7528 76.8297 68.6538 77.0843 68.5419 77.2178C68.4441 77.3344 68.2763 77.43 67.9418 77.43V78.43ZM69.7528 76.366V73.215H68.7528V76.366H69.7528ZM69.2528 72.715H67.9878V73.715H69.2528V72.715ZM68.4878 73.215V70.915H67.4878V73.215H68.4878ZM67.9878 71.415H71.6448V70.415H67.9878V71.415ZM71.1448 70.915V76.182H72.1448V70.915H71.1448ZM71.1448 76.182C71.1448 77.4066 70.8429 78.2738 70.3096 78.8579L71.048 79.5321C71.8027 78.7056 72.1448 77.5641 72.1448 76.182H71.1448ZM70.3133 78.8538C69.79 79.4144 69.0046 79.73 67.8728 79.73V80.73C69.1943 80.73 70.2795 80.3556 71.0443 79.5362L70.3133 78.8538ZM73.2692 63.9V63.4H72.7692V63.9H73.2692ZM80.1692 63.9H80.6692V63.4H80.1692V63.9ZM80.1692 66.2V66.7H80.6692V66.2H80.1692ZM75.7992 66.2V65.7H75.2992V66.2H75.7992ZM75.7992 70.455H75.2992V70.955H75.7992V70.455ZM79.2722 70.455H79.7722V69.955H79.2722V70.455ZM79.2722 72.755V73.255H79.7722V72.755H79.2722ZM75.7992 72.755V72.255H75.2992V72.755H75.7992ZM75.7992 77.7H75.2992V78.2H75.7992V77.7ZM80.1692 77.7H80.6692V77.2H80.1692V77.7ZM80.1692 80V80.5H80.6692V80H80.1692ZM73.2692 80H72.7692V80.5H73.2692V80ZM73.2692 64.4H80.1692V63.4H73.2692V64.4ZM79.6692 63.9V66.2H80.6692V63.9H79.6692ZM80.1692 65.7H75.7992V66.7H80.1692V65.7ZM75.2992 66.2V70.455H76.2992V66.2H75.2992ZM75.7992 70.955H79.2722V69.955H75.7992V70.955ZM78.7722 70.455V72.755H79.7722V70.455H78.7722ZM79.2722 72.255H75.7992V73.255H79.2722V72.255ZM75.2992 72.755V77.7H76.2992V72.755H75.2992ZM75.7992 78.2H80.1692V77.2H75.7992V78.2ZM79.6692 77.7V80H80.6692V77.7H79.6692ZM80.1692 79.5H73.2692V80.5H80.1692V79.5ZM73.7692 80V63.9H72.7692V80H73.7692ZM87.2366 63.9V63.4H86.8963L86.7715 63.7166L87.2366 63.9ZM89.4216 63.9L89.8868 64.0834L90.1562 63.4H89.4216V63.9ZM83.0736 80V80.5H83.414L83.5388 80.1834L83.0736 80ZM80.8886 80L80.4235 79.8166L80.154 80.5H80.8886V80ZM87.2366 64.4H89.4216V63.4H87.2366V64.4ZM88.9565 63.7166L82.6085 79.8166L83.5388 80.1834L89.8868 64.0834L88.9565 63.7166ZM83.0736 79.5H80.8886V80.5H83.0736V79.5ZM81.3538 80.1834L87.7018 64.0834L86.7715 63.7166L80.4235 79.8166L81.3538 80.1834ZM90.5641 63.9V63.4H90.0641V63.9H90.5641ZM97.1191 64.912L96.7533 65.2529V65.2529L97.1191 64.912ZM97.1191 72.433L96.7533 72.0921L97.1191 72.433ZM93.0941 73.445V72.945H92.5941V73.445H93.0941ZM93.0941 80V80.5H93.5941V80H93.0941ZM90.5641 80H90.0641V80.5H90.5641V80ZM95.2101 70.8L94.8446 70.4588L94.8383 70.4656L94.8323 70.4725L95.2101 70.8ZM95.2101 66.545L94.8323 66.8725L94.8383 66.8794L94.8446 66.8862L95.2101 66.545ZM93.0941 66.2V65.7H92.5941V66.2H93.0941ZM93.0941 71.145H92.5941V71.645H93.0941V71.145ZM90.5641 64.4H94.2901V63.4H90.5641V64.4ZM94.2901 64.4C95.461 64.4 96.2497 64.7125 96.7533 65.2529L97.4849 64.5711C96.7311 63.7622 95.6339 63.4 94.2901 63.4V64.4ZM96.7533 65.2529C97.2657 65.8027 97.5621 66.6498 97.5621 67.879H98.5621C98.5621 66.5015 98.2299 65.3706 97.4849 64.5711L96.7533 65.2529ZM97.5621 67.879V69.466H98.5621V67.879H97.5621ZM97.5621 69.466C97.5621 70.6952 97.2657 71.5423 96.7533 72.0921L97.4849 72.7739C98.2299 71.9744 98.5621 70.8435 98.5621 69.466H97.5621ZM96.7533 72.0921C96.2497 72.6325 95.461 72.945 94.2901 72.945V73.945C95.6339 73.945 96.7311 73.5828 97.4849 72.7739L96.7533 72.0921ZM94.2901 72.945H93.0941V73.945H94.2901V72.945ZM92.5941 73.445V80H93.5941V73.445H92.5941ZM93.0941 79.5H90.5641V80.5H93.0941V79.5ZM91.0641 80V63.9H90.0641V80H91.0641ZM94.2901 71.645C94.7943 71.645 95.2628 71.5026 95.5879 71.1275L94.8323 70.4725C94.7587 70.5574 94.6139 70.645 94.2901 70.645V71.645ZM95.5756 71.1412C95.922 70.77 96.0321 70.2182 96.0321 69.627H95.0321C95.0321 70.1398 94.9275 70.37 94.8446 70.4588L95.5756 71.1412ZM96.0321 69.627V67.718H95.0321V69.627H96.0321ZM96.0321 67.718C96.0321 67.1268 95.922 66.575 95.5756 66.2038L94.8446 66.8862C94.9275 66.975 95.0321 67.2052 95.0321 67.718H96.0321ZM95.5879 66.2175C95.2628 65.8424 94.7943 65.7 94.2901 65.7V66.7C94.6139 66.7 94.7587 66.7876 94.8323 66.8725L95.5879 66.2175ZM94.2901 65.7H93.0941V66.7H94.2901V65.7ZM92.5941 66.2V71.145H93.5941V66.2H92.5941ZM93.0941 71.645H94.2901V70.645H93.0941V71.645ZM99.4362 63.9V63.4H98.9362V63.9H99.4362ZM101.966 63.9H102.466V63.4H101.966V63.9ZM101.966 77.7H101.466V78.2H101.966V77.7ZM106.129 77.7H106.629V77.2H106.129V77.7ZM106.129 80V80.5H106.629V80H106.129ZM99.4362 80H98.9362V80.5H99.4362V80ZM99.4362 64.4H101.966V63.4H99.4362V64.4ZM101.466 63.9V77.7H102.466V63.9H101.466ZM101.966 78.2H106.129V77.2H101.966V78.2ZM105.629 77.7V80H106.629V77.7H105.629ZM106.129 79.5H99.4362V80.5H106.129V79.5ZM99.9362 80V63.9H98.9362V80H99.9362ZM109.387 63.9V63.4H108.962L108.894 63.8196L109.387 63.9ZM112.814 63.9L113.308 63.8196L113.239 63.4H112.814V63.9ZM115.436 80V80.5H116.024L115.93 79.9196L115.436 80ZM112.906 80L112.411 80.0712L112.473 80.5H112.906V80ZM112.446 76.803L112.941 76.7318L111.946 76.803H112.446ZM112.446 76.849V77.349H112.946V76.849H112.446ZM109.571 76.849V76.349H109.139L109.076 76.7768L109.571 76.849ZM109.111 80V80.5H109.544L109.606 80.0722L109.111 80ZM106.765 80L106.272 79.9196L106.177 80.5H106.765V80ZM112.147 74.664V75.164H112.723L112.642 74.5939L112.147 74.664ZM111.02 66.706L111.515 66.6359L111.454 66.206H111.02V66.706ZM110.974 66.706V66.206H110.539L110.479 66.6373L110.974 66.706ZM109.87 74.664L109.375 74.5953L109.296 75.164H109.87V74.664ZM109.387 64.4H112.814V63.4H109.387V64.4ZM112.321 63.9804L114.943 80.0804L115.93 79.9196L113.308 63.8196L112.321 63.9804ZM115.436 79.5H112.906V80.5H115.436V79.5ZM113.401 79.9288L112.941 76.7318L111.951 76.8742L112.411 80.0712L113.401 79.9288ZM111.946 76.803V76.849H112.946V76.803H111.946ZM112.446 76.349H109.571V77.349H112.446V76.349ZM109.076 76.7768L108.617 79.9278L109.606 80.0722L110.066 76.9212L109.076 76.7768ZM109.111 79.5H106.765V80.5H109.111V79.5ZM107.259 80.0804L109.881 63.9804L108.894 63.8196L106.272 79.9196L107.259 80.0804ZM112.642 74.5939L111.515 66.6359L110.525 66.7761L111.652 74.7341L112.642 74.5939ZM111.02 66.206H110.974V67.206H111.02V66.206ZM110.479 66.6373L109.375 74.5953L110.366 74.7327L111.47 66.7747L110.479 66.6373ZM109.87 75.164H112.147V74.164H109.87V75.164ZM117.931 73.146H118.431V73.0654L118.406 72.9889L117.931 73.146ZM114.872 63.9V63.4H114.18L114.397 64.057L114.872 63.9ZM117.563 63.9L118.043 63.7599L117.938 63.4H117.563V63.9ZM119.288 69.811L118.808 69.9511L118.913 70.311H119.288V69.811ZM119.334 69.811V70.311H119.709L119.814 69.9511L119.334 69.811ZM121.059 63.9V63.4H120.684L120.579 63.7599L121.059 63.9ZM123.52 63.9L123.995 64.057L124.212 63.4H123.52V63.9ZM120.461 73.146L119.986 72.9889L119.961 73.0654V73.146H120.461ZM120.461 80V80.5H120.961V80H120.461ZM117.931 80H117.431V80.5H117.931V80ZM118.406 72.9889L115.347 63.7429L114.397 64.057L117.456 73.3031L118.406 72.9889ZM114.872 64.4H117.563V63.4H114.872V64.4ZM117.083 64.0401L118.808 69.9511L119.768 69.6709L118.043 63.7599L117.083 64.0401ZM119.288 70.311H119.334V69.311H119.288V70.311ZM119.814 69.9511L121.539 64.0401L120.579 63.7599L118.854 69.6709L119.814 69.9511ZM121.059 64.4H123.52V63.4H121.059V64.4ZM123.045 63.7429L119.986 72.9889L120.936 73.3031L123.995 64.057L123.045 63.7429ZM119.961 73.146V80H120.961V73.146H119.961ZM120.461 79.5H117.931V80.5H120.461V79.5ZM118.431 80V73.146H117.431V80H118.431ZM129.014 63.9V63.4H128.674L128.549 63.7166L129.014 63.9ZM131.199 63.9L131.664 64.0834L131.934 63.4H131.199V63.9ZM124.851 80V80.5H125.191L125.316 80.1834L124.851 80ZM122.666 80L122.201 79.8166L121.931 80.5H122.666V80ZM129.014 64.4H131.199V63.4H129.014V64.4ZM130.734 63.7166L124.386 79.8166L125.316 80.1834L131.664 64.0834L130.734 63.7166ZM124.851 79.5H122.666V80.5H124.851V79.5ZM123.131 80.1834L129.479 64.0834L128.549 63.7166L122.201 79.8166L123.131 80.1834ZM133.123 79.195L132.754 79.5318L132.758 79.5362L133.123 79.195ZM133.123 64.705L132.758 64.3638L132.754 64.3683L133.123 64.705ZM138.666 64.705L138.297 65.0418L138.301 65.0462L138.666 64.705ZM139.632 69.328V69.828H140.132V69.328H139.632ZM137.24 69.328H136.74V69.828H137.24V69.328ZM137.24 73.997V73.497H136.74V73.997H137.24ZM139.632 73.997H140.132V73.497H139.632V73.997ZM138.666 79.195L138.301 78.8538L138.297 78.8583L138.666 79.195ZM135.906 79.73C134.792 79.73 134.013 79.4157 133.489 78.8538L132.758 79.5362C133.522 80.3543 134.598 80.73 135.906 80.73V79.73ZM133.493 78.8583C132.974 78.2883 132.68 77.4506 132.68 76.274H131.68C131.68 77.612 132.016 78.7217 132.754 79.5317L133.493 78.8583ZM132.68 76.274V67.626H131.68V76.274H132.68ZM132.68 67.626C132.68 66.4494 132.974 65.6117 133.493 65.0417L132.754 64.3683C132.016 65.1783 131.68 66.288 131.68 67.626H132.68ZM133.489 65.0462C134.013 64.4843 134.792 64.17 135.906 64.17V63.17C134.598 63.17 133.522 63.5457 132.758 64.3638L133.489 65.0462ZM135.906 64.17C137.021 64.17 137.789 64.4845 138.297 65.0417L139.036 64.3683C138.286 63.5455 137.214 63.17 135.906 63.17V64.17ZM138.301 65.0462C138.833 65.6163 139.132 66.4523 139.132 67.626H140.132C140.132 66.285 139.788 65.1737 139.032 64.3638L138.301 65.0462ZM139.132 67.626V69.328H140.132V67.626H139.132ZM139.632 68.828H137.24V69.828H139.632V68.828ZM137.74 69.328V67.465H136.74V69.328H137.74ZM137.74 67.465C137.74 66.9081 137.624 66.3972 137.306 66.0208C136.974 65.6284 136.498 65.47 135.975 65.47V66.47C136.296 66.47 136.453 66.5608 136.542 66.6667C136.646 66.7886 136.74 67.0252 136.74 67.465H137.74ZM135.975 65.47C135.453 65.47 134.977 65.6284 134.645 66.0208C134.326 66.3972 134.21 66.9081 134.21 67.465H135.21C135.21 67.0252 135.305 66.7886 135.408 66.6667C135.498 66.5608 135.655 66.47 135.975 66.47V65.47ZM134.21 67.465V76.458H135.21V67.465H134.21ZM134.21 76.458C134.21 77.0088 134.327 77.5151 134.647 77.8879C134.98 78.2751 135.455 78.43 135.975 78.43V77.43C135.652 77.43 135.495 77.3395 135.406 77.2361C135.305 77.1182 135.21 76.8886 135.21 76.458H134.21ZM135.975 78.43C136.496 78.43 136.971 78.2751 137.303 77.8879C137.624 77.5151 137.74 77.0087 137.74 76.458H136.74C136.74 76.8886 136.646 77.1182 136.545 77.2361C136.456 77.3395 136.299 77.43 135.975 77.43V78.43ZM137.74 76.458V73.997H136.74V76.458H137.74ZM137.24 74.497H139.632V73.497H137.24V74.497ZM139.132 73.997V76.274H140.132V73.997H139.132ZM139.132 76.274C139.132 77.4477 138.833 78.2837 138.301 78.8538L139.032 79.5362C139.788 78.7263 140.132 77.615 140.132 76.274H139.132ZM138.297 78.8583C137.789 79.4155 137.021 79.73 135.906 79.73V80.73C137.214 80.73 138.286 80.3545 139.036 79.5317L138.297 78.8583ZM141.146 63.9V63.4H140.646V63.9H141.146ZM147.747 64.82L147.389 65.1691L147.394 65.1736L147.747 64.82ZM146.988 71.766L146.801 71.3022L146.488 71.4284V71.766H146.988ZM146.988 71.812H146.488V72.184L146.844 72.2909L146.988 71.812ZM148.276 72.939L147.817 73.1375L147.822 73.1477L148.276 72.939ZM148.713 79.172L148.216 79.2243L148.216 79.2272L148.713 79.172ZM148.943 80V80.5H149.713L149.4 79.7969L148.943 80ZM146.367 80L145.896 80.1664L146.013 80.5H146.367V80ZM145.769 73.537L145.377 73.8468L145.382 73.853L145.387 73.8591L145.769 73.537ZM143.676 73.1V72.6H143.176V73.1H143.676ZM143.676 80V80.5H144.176V80H143.676ZM141.146 80H140.646V80.5H141.146V80ZM145.723 70.409L145.37 70.0554L145.364 70.0608L145.359 70.0663L145.723 70.409ZM145.792 66.591L145.395 66.8947L145.4 66.9019L145.406 66.9089L145.792 66.591ZM143.676 66.2V65.7H143.176V66.2H143.676ZM143.676 70.8H143.176V71.3H143.676V70.8ZM141.146 64.4H144.895V63.4H141.146V64.4ZM144.895 64.4C146.133 64.4 146.925 64.6926 147.389 65.169L148.105 64.4709C147.374 63.7207 146.264 63.4 144.895 63.4V64.4ZM147.394 65.1736C147.861 65.6406 148.144 66.4143 148.144 67.603H149.144C149.144 66.2771 148.83 65.1954 148.101 64.4664L147.394 65.1736ZM148.144 67.603V68.592H149.144V67.603H148.144ZM148.144 68.592C148.144 69.3775 148.014 69.9729 147.787 70.4077C147.566 70.8315 147.243 71.1245 146.801 71.3022L147.175 72.2298C147.838 71.9628 148.342 71.5045 148.673 70.8703C148.999 70.2471 149.144 69.4778 149.144 68.592H148.144ZM146.488 71.766V71.812H147.488V71.766H146.488ZM146.844 72.2909C147.322 72.4343 147.633 72.711 147.817 73.1375L148.735 72.7405C148.429 72.0323 147.881 71.5577 147.132 71.3331L146.844 72.2909ZM147.822 73.1477C148.041 73.6244 148.167 74.3033 148.167 75.216H149.167C149.167 74.2274 149.033 73.3882 148.73 72.7302L147.822 73.1477ZM148.167 75.216V78.045H149.167V75.216H148.167ZM148.167 78.045C148.167 78.5138 148.183 78.9087 148.216 79.2243L149.21 79.1197C149.182 78.8526 149.167 78.4962 149.167 78.045H148.167ZM148.216 79.2272C148.253 79.5585 148.345 79.8842 148.486 80.2031L149.4 79.7969C149.296 79.5638 149.235 79.3375 149.21 79.1168L148.216 79.2272ZM148.943 79.5H146.367V80.5H148.943V79.5ZM146.839 79.8336C146.756 79.5995 146.704 79.388 146.679 79.1979L145.688 79.3301C145.724 79.6 145.794 79.8792 145.896 80.1664L146.839 79.8336ZM146.679 79.1979C146.653 79.0049 146.637 78.6218 146.637 78.022H145.637C145.637 78.6182 145.652 79.0631 145.688 79.3301L146.679 79.1979ZM146.637 78.022V75.078H145.637V78.022H146.637ZM146.637 75.078C146.637 74.3189 146.517 73.6491 146.152 73.2149L145.387 73.8591C145.512 74.0076 145.637 74.3651 145.637 75.078H146.637ZM146.162 73.2272C145.793 72.7605 145.198 72.6 144.55 72.6V73.6C145.068 73.6 145.285 73.7308 145.377 73.8468L146.162 73.2272ZM144.55 72.6H143.676V73.6H144.55V72.6ZM143.176 73.1V80H144.176V73.1H143.176ZM143.676 79.5H141.146V80.5H143.676V79.5ZM141.646 80V63.9H140.646V80H141.646ZM144.596 71.3C145.182 71.3 145.714 71.1484 146.087 70.7517L145.359 70.0663C145.242 70.1909 145.022 70.3 144.596 70.3V71.3ZM146.077 70.7626C146.477 70.3622 146.614 69.7606 146.614 69.098H145.614C145.614 69.662 145.491 69.9344 145.37 70.0554L146.077 70.7626ZM146.614 69.098V67.856H145.614V69.098H146.614ZM146.614 67.856C146.614 67.2336 146.504 66.6684 146.178 66.2731L145.406 66.9089C145.51 67.0349 145.614 67.313 145.614 67.856H146.614ZM146.189 66.2873C145.864 65.8623 145.367 65.7 144.826 65.7V66.7C145.174 66.7 145.321 66.7984 145.395 66.8947L146.189 66.2873ZM144.826 65.7H143.676V66.7H144.826V65.7ZM143.176 66.2V70.8H144.176V66.2H143.176ZM143.676 71.3H144.596V70.3H143.676V71.3ZM150.422 63.9V63.4H149.922V63.9H150.422ZM157.322 63.9H157.822V63.4H157.322V63.9ZM157.322 66.2V66.7H157.822V66.2H157.322ZM152.952 66.2V65.7H152.452V66.2H152.952ZM152.952 70.455H152.452V70.955H152.952V70.455ZM156.425 70.455H156.925V69.955H156.425V70.455ZM156.425 72.755V73.255H156.925V72.755H156.425ZM152.952 72.755V72.255H152.452V72.755H152.952ZM152.952 77.7H152.452V78.2H152.952V77.7ZM157.322 77.7H157.822V77.2H157.322V77.7ZM157.322 80V80.5H157.822V80H157.322ZM150.422 80H149.922V80.5H150.422V80ZM150.422 64.4H157.322V63.4H150.422V64.4ZM156.822 63.9V66.2H157.822V63.9H156.822ZM157.322 65.7H152.952V66.7H157.322V65.7ZM152.452 66.2V70.455H153.452V66.2H152.452ZM152.952 70.955H156.425V69.955H152.952V70.955ZM155.925 70.455V72.755H156.925V70.455H155.925ZM156.425 72.255H152.952V73.255H156.425V72.255ZM152.452 72.755V77.7H153.452V72.755H152.452ZM152.952 78.2H157.322V77.2H152.952V78.2ZM156.822 77.7V80H157.822V77.7H156.822ZM157.322 79.5H150.422V80.5H157.322V79.5ZM150.922 80V63.9H149.922V80H150.922ZM160.733 63.9V63.4H160.308L160.239 63.8196L160.733 63.9ZM164.16 63.9L164.653 63.8196L164.585 63.4H164.16V63.9ZM166.782 80V80.5H167.37L167.275 79.9196L166.782 80ZM164.252 80L163.757 80.0712L163.819 80.5H164.252V80ZM163.792 76.803L164.287 76.7318L163.292 76.803H163.792ZM163.792 76.849V77.349H164.292V76.849H163.792ZM160.917 76.849V76.349H160.485L160.422 76.7768L160.917 76.849ZM160.457 80V80.5H160.889L160.952 80.0722L160.457 80ZM158.111 80L157.617 79.9196L157.523 80.5H158.111V80ZM163.493 74.664V75.164H164.069L163.988 74.5939L163.493 74.664ZM162.366 66.706L162.861 66.6359L162.8 66.206H162.366V66.706ZM162.32 66.706V66.206H161.885L161.825 66.6373L162.32 66.706ZM161.216 74.664L160.721 74.5953L160.642 75.164H161.216V74.664ZM160.733 64.4H164.16V63.4H160.733V64.4ZM163.666 63.9804L166.288 80.0804L167.275 79.9196L164.653 63.8196L163.666 63.9804ZM166.782 79.5H164.252V80.5H166.782V79.5ZM164.747 79.9288L164.287 76.7318L163.297 76.8742L163.757 80.0712L164.747 79.9288ZM163.292 76.803V76.849H164.292V76.803H163.292ZM163.792 76.349H160.917V77.349H163.792V76.349ZM160.422 76.7768L159.962 79.9278L160.952 80.0722L161.412 76.9212L160.422 76.7768ZM160.457 79.5H158.111V80.5H160.457V79.5ZM158.604 80.0804L161.226 63.9804L160.239 63.8196L157.617 79.9196L158.604 80.0804ZM163.988 74.5939L162.861 66.6359L161.871 66.7761L162.998 74.7341L163.988 74.5939ZM162.366 66.206H162.32V67.206H162.366V66.206ZM161.825 66.6373L160.721 74.5953L161.711 74.7327L162.815 66.7747L161.825 66.6373ZM161.216 75.164H163.493V74.164H161.216V75.164ZM168.932 66.2H169.432V65.7H168.932V66.2ZM166.287 66.2H165.787V66.7H166.287V66.2ZM166.287 63.9V63.4H165.787V63.9H166.287ZM174.107 63.9H174.607V63.4H174.107V63.9ZM174.107 66.2V66.7H174.607V66.2H174.107ZM171.462 66.2V65.7H170.962V66.2H171.462ZM171.462 80V80.5H171.962V80H171.462ZM168.932 80H168.432V80.5H168.932V80ZM168.932 65.7H166.287V66.7H168.932V65.7ZM166.787 66.2V63.9H165.787V66.2H166.787ZM166.287 64.4H174.107V63.4H166.287V64.4ZM173.607 63.9V66.2H174.607V63.9H173.607ZM174.107 65.7H171.462V66.7H174.107V65.7ZM170.962 66.2V80H171.962V66.2H170.962ZM171.462 79.5H168.932V80.5H171.462V79.5ZM169.432 80V66.2H168.432V80H169.432ZM175.332 63.9V63.4H174.832V63.9H175.332ZM182.232 63.9H182.732V63.4H182.232V63.9ZM182.232 66.2V66.7H182.732V66.2H182.232ZM177.862 66.2V65.7H177.362V66.2H177.862ZM177.862 70.455H177.362V70.955H177.862V70.455ZM181.335 70.455H181.835V69.955H181.335V70.455ZM181.335 72.755V73.255H181.835V72.755H181.335ZM177.862 72.755V72.255H177.362V72.755H177.862ZM177.862 77.7H177.362V78.2H177.862V77.7ZM182.232 77.7H182.732V77.2H182.232V77.7ZM182.232 80V80.5H182.732V80H182.232ZM175.332 80H174.832V80.5H175.332V80ZM175.332 64.4H182.232V63.4H175.332V64.4ZM181.732 63.9V66.2H182.732V63.9H181.732ZM182.232 65.7H177.862V66.7H182.232V65.7ZM177.362 66.2V70.455H178.362V66.2H177.362ZM177.862 70.955H181.335V69.955H177.862V70.955ZM180.835 70.455V72.755H181.835V70.455H180.835ZM181.335 72.255H177.862V73.255H181.335V72.255ZM177.362 72.755V77.7H178.362V72.755H177.362ZM177.862 78.2H182.232V77.2H177.862V78.2ZM181.732 77.7V80H182.732V77.7H181.732ZM182.232 79.5H175.332V80.5H182.232V79.5ZM175.832 80V63.9H174.832V80H175.832Z" fill="white"/>
</svg>
